<?xml version="1.0" encoding="UTF-8"?>
<svg xmlns="http://www.w3.org/2000/svg" viewBox="0 0 512 512" width="512" height="512">
<path d="M332.88 74.92C341.29 78.73 350.04 81.91 358.25 86.68C358.75 85.68 358.88 85.32 359.88 85C359.61 85.92 359.33 86.83 359.05 87.75C364.5 91.56 370.44 94.66 376.06 98.23C383.02 102.65 389.49 108.13 395.8 113.42C398.72 115.86 402.21 118.01 404.54 121.06C403.69 121.37 403.37 120.72 402.5 120.25C406.15 126.09 411.19 131.13 414.7 137.05C418.09 142.76 421.9 148.41 424.86 154.39C426.49 157.68 427.78 161.14 429.34 164.41C430.18 166.19 431.35 167.89 432.06 169.76C432.62 171.21 432.79 172.82 433.29 174.25C434.74 178.36 436.48 182.65 438.1 186.75C438.71 188.31 438.85 191.25 439.27 192.89C439.78 194.87 440.64 196.79 441.15 198.75C441.33 199.45 441.09 200.21 441.27 200.89C441.45 201.58 441.98 202.06 442.15 202.75C442.39 203.71 442.01 204.7 442.2 205.65C442.43 206.77 443.32 207.43 443.24 208.75C443.2 209.3 442.73 209.8 442.72 210.25C442.69 211.62 443.79 212.95 444.11 214.25C444.5 215.86 443.86 217.57 444.22 219.14C444.37 219.83 444.92 220.56 445.17 221.25C444.78 221.58 444.39 221.92 444 222.25C444.43 222.92 444.86 223.58 445.29 224.25C445.21 226.69 444.89 229.32 445.08 231.75C445.19 233.12 445.9 234.35 446.05 235.75C446.48 239.85 446.32 244.13 446.15 248.25C446.05 250.51 445.22 252.56 445.09 254.74C444.93 257.23 445.53 259.74 445.17 262.25C445.03 263.27 444.38 263.92 444.19 264.84C443.75 266.95 444.04 269.32 444.14 271.25C443.54 272.24 442.61 274.05 442.62 275.17C442.63 275.56 443.11 275.79 443.1 276.26C443.08 277.39 441.72 278.57 441.72 279.75C441.72 280.1 442.16 280.37 442.19 280.77C442.27 281.85 441.49 282.42 441.23 283.35C440.59 285.64 441.16 287.54 439 289.25C439.27 289.42 439.82 289.51 439.95 289.85C440.15 290.43 439.4 290.92 439.27 291.44C438.84 293.13 438.74 295.63 438.11 297.25C437.87 297.85 437.38 298.21 437.23 298.83C434.63 309.36 429.82 320.06 424.59 329.86C415.41 347.08 404.16 362.56 390.35 376.6C384.85 382.19 379.15 387.98 372.7 392.44C369.26 394.81 366.24 397.77 362.71 400.03C355.56 404.63 348.39 409.29 340.82 413.12C336.85 415.13 332.46 416.41 328.75 418.84C327.7 422.07 328.3 426.08 328.25 429.5C328.08 426.17 327.92 422.83 327.75 419.5C327.24 422.07 326.93 428.18 327.52 430.73C327.69 431.49 328.15 431.96 328.28 432.75C328.79 435.89 328.27 439.56 328.27 442.75C328.27 449.92 328.27 457.08 328.27 464.25C328.27 470.29 329.77 480.65 325.78 485.54C323.63 488.17 321.64 487.59 319.25 488.97C316.89 488.07 315.06 487.44 313.34 485.41C312.32 484.2 312.12 482.79 310.75 482.06C309.47 484.15 308.78 486.93 306.17 487.97C305.1 488.4 304.26 488.37 303.25 489C301.24 488.36 298.57 487.99 297.21 486.03C296.08 484.4 296.04 482.58 294.25 481.5C294.44 485.99 290.17 487.84 286.75 489C285.53 488.22 284.59 488.53 283.31 488.04C279.94 486.74 278.83 482.65 277.79 479.75C278.13 479.51 278.7 479.51 278.89 479.14C279.1 478.75 279 474.06 279 473.25C279 467.58 279 461.92 279 456.25C279 452.75 279 449.25 279 445.75C279 444.75 279.38 442.77 278.91 441.88C278.85 441.77 277.96 442.16 277.77 442.25C277.76 439.23 277.76 436.21 277.75 433.2C276.59 433.15 274.78 433.61 273.67 433.23C273.16 433.05 272.9 432.6 272.33 432.62C272 432.64 271.61 433.12 271.23 433.19C270.48 433.35 269.71 433.04 268.93 433.24C266.98 433.77 265.08 435.3 263.75 433C262.19 434.67 259.53 434.75 258.25 433.5C256.59 434.69 246.91 434.69 245.25 433.5C243.44 435.26 243.17 433.74 241.25 433.72C240.97 433.72 240.52 434.19 240.17 434.26C237.58 434.81 232.29 433.16 229.75 432.5C227.74 434.48 225.27 431.6 222.25 432.59C221.8 436.73 222.12 441.08 222.12 445.25C222.12 453.08 222.12 460.92 222.12 468.75C222.12 472.38 222.77 476.67 222.19 480.23C222.13 480.6 221.73 480.92 221.72 481.25C221.7 481.82 222.19 481.97 222.01 482.68C221.54 484.56 219.06 487.35 217.2 488.01C215.91 488.45 214.97 488.29 213.75 489.01C212.66 488.5 211.41 488.44 210.37 487.91C207.41 486.4 206.56 482.68 205.25 480.27C205.28 482.25 203.98 486.73 201.5 486.25C200.79 488.68 199.58 488.07 197.25 489.02C196.19 488.37 195.39 488.48 194.3 488.06C191.14 486.83 189.66 482.68 190 479.75C189.86 479.88 189.22 480.88 189.2 480.89C189.05 480.93 188.98 480.2 188.75 480.22C188.54 480.23 188.54 480.71 188.5 480.75C189.41 482.96 186.94 487.01 184.69 488.02C183.61 488.51 182.37 488.52 181.25 489.02C180.12 488.34 179.47 488.47 178.26 488.16C175.83 487.54 173.95 484.76 172.97 482.67C172.38 481.4 172.85 479.58 172.88 478.25C172.94 474.92 172.88 471.58 172.88 468.25C172.88 456.25 172.76 444.25 172.76 432.25C172.76 429.44 173.49 420.74 172.67 418.59C172.23 417.47 171.22 417.44 170.32 417C167.63 415.67 165.01 414.27 162.27 413.08C154.01 409.49 146.08 403.67 138.57 398.67C137.6 398.03 132.15 394.47 131.89 393.69C131.79 393.39 132.05 393.06 132 392.75C129.48 393.22 126.15 389.03 124.28 387.47C118.65 382.76 113.59 377.54 108.43 372.33C107.22 371.11 103.06 367.27 102.79 365.73C102.73 365.4 103.01 365.08 103 364.75C101.43 365.04 100.23 363.14 99.33 361.92C96.79 358.5 94.38 354.83 91.68 351.58C87.26 346.26 83.75 339.67 80.62 333.64C76.6 325.88 72.38 318.33 69.71 310.13C68.79 307.27 67.69 304.38 66.7 301.55C66.49 300.95 64.86 297.28 65 296.88C65.15 296.45 65.52 296.92 65.73 296.8C66.25 296.5 65.48 296.76 66 296.25C63.73 294.1 63.24 290.73 62.77 287.8C62.67 287.24 61.87 286.38 62.05 285.85C62.18 285.51 62.73 285.42 63 285.25C61.65 283.97 60.5 281.29 61.5 279.75C60.34 279.07 61.12 278.63 60.74 277.43C60.6 276.98 60.13 276.7 59.96 276.23C59.51 274.95 60.08 273.62 59.77 272.37C59.63 271.77 59.09 271.36 58.92 270.74C58.5 269.19 58.75 267.34 58.8 265.75C58.85 263.93 57.92 262.62 57.77 260.78C57.69 259.79 58.42 259.16 58.38 258.33C58.36 258 57.89 257.6 57.81 257.23C57.52 255.82 58.05 254.22 57.88 252.77C57.75 251.57 57.19 250.47 57.05 249.27C56.52 244.84 56.11 236.02 57.11 231.77C57.25 231.18 57.69 230.74 57.82 230.15C58.29 227.99 56.87 225.45 58.5 223.75C57.19 221.91 59.06 216.08 60 214.25C59.77 214.26 59.09 214.38 58.96 214.13C58.46 213.11 59.57 212.45 59.78 211.62C60.13 210.21 59.44 208.72 60.01 207.29C60.93 205 60.32 204.19 60.91 202.26C62.08 198.45 62.88 194.63 63.82 190.75C64.25 188.99 65.26 187.3 65.72 185.55C65.87 184.97 65.71 184.35 65.9 183.77C66.06 183.25 66.52 182.96 66.69 182.47C66.89 181.93 66.74 181.33 66.92 180.77C68.6 175.61 70.7 170.27 72.97 165.3C78.52 153.09 85.47 141.58 92.98 130.31C93.71 129.21 94.79 128.38 95.56 127.3C99.75 121.43 104.96 114.37 110.5 109.75C109.82 109.85 109.14 109.95 108.47 110.05C110.27 107.84 113.14 106.36 115.46 104.94C117.55 103.67 119.33 101.67 121.43 100.32C126.48 97.09 131.48 93.89 136.6 90.81C138.28 89.8 139.91 88.55 141.75 88C140.85 84.48 139.25 80.79 137.76 77.43C137.05 75.84 135.96 74.54 135.44 72.88C138.81 74.59 140.33 82.88 142.05 86.25C144.52 86.18 147.1 84.11 149.32 82.99C152.86 81.19 156.52 79.36 160.27 77.9C162.37 77.09 164.9 76.33 166.75 75C167.48 76.12 168.45 75.65 169.5 75.03C172.74 72.85 177.13 72.21 180.84 71.12C183.54 70.32 186.08 68.94 188.8 68.14C190.75 67.57 192.89 67.52 194.84 67.12C195.87 66.9 196.67 66.2 197.68 66C201.37 65.24 204.97 64.5 208.69 63.82C209.74 63.63 210.69 63.03 211.77 62.92C220.71 61.94 229.66 60.52 238.75 59.88C241.6 59.68 244.42 59.85 247.25 59.97C251.59 60.15 255.91 59.72 260.25 59.83C263.05 59.9 265.67 60.42 268.43 60.75C270.38 60.98 272.32 60.74 274.25 60.87C275.7 60.97 277.01 61.49 278.42 61.76C279.71 62.01 280.96 61.74 282.25 61.84C284.44 62.01 286.51 62.73 288.73 62.93C289.81 63.03 290.8 63.53 291.82 63.82C292.83 64.11 293.89 63.91 294.84 64.16C296.72 64.66 298.56 65.24 300.4 65.77C301.33 66.04 302.31 65.85 303.24 66.1C308.08 67.38 313 68.51 317.74 70.02C321.23 71.14 329.66 75.07 332.88 74.92ZM349 130.25C347.37 125.02 341.9 126.59 337.78 126.93C329.83 127.59 319.24 132.85 312.45 137.22C311.37 137.91 310.54 138.98 309.49 139.72C306.81 141.62 300.47 146.77 302.13 150.62C304.03 155.01 314.3 152.38 317.53 151.28C318.38 150.99 319.31 151.16 320.16 150.88C327.76 148.4 341.98 141.28 346.84 134.59C347.79 133.29 348.33 131.69 349 130.25ZM156.32 129.14C148.38 131.13 152.82 137.29 157 140.73C164.66 147.05 176.97 154.09 186.77 155.08C190.31 155.44 191.73 156.74 195.53 155.27C196.46 154.91 197.46 154.77 197.98 153.78C200.37 149.28 193.9 144.93 191.13 142.62C184.89 137.42 177.12 133.85 169.63 131.14C168.71 130.81 167.67 131.04 166.74 130.74C163.7 129.79 159.56 128.33 156.32 129.14ZM232.28 141.55C230.89 140.96 230.21 142.01 229.39 143.25C225.61 143.39 215.19 148.72 211.72 151.03C204.41 155.89 197.93 161.73 193.88 169.62C193.06 171.2 191.86 172.86 191.3 174.52C190.66 176.42 190.55 178.27 190.05 180.24C189.86 180.99 189.28 181.53 189.16 182.28C189.03 183.09 189.35 183.93 189.21 184.73C189.15 185.08 188.72 185.43 188.72 185.75C188.72 186.13 189.2 186.32 189.21 186.75C189.21 187.18 188.72 187.38 188.72 187.75C188.73 188.04 189.19 188.53 189.26 188.89C189.53 190.08 188.91 191.4 189.24 192.59C190.76 198.07 192.58 203.2 195.44 208.22C200.75 217.55 213.48 226.26 223.2 229.65C225.26 230.37 227.38 231.13 229.45 231.72C231.45 232.28 234.24 232.05 235.94 233C234.53 233.48 233.45 233.34 232 233.25C234.17 239.92 236.33 246.58 238.5 253.25C241.5 253.25 244.5 253.24 247.5 253.24C248.08 253.16 248.67 253.08 249.25 253C250.05 248.99 249.5 244.37 249.5 240.25C249.5 238.6 249.83 236.72 248.9 235.5C249.02 235.26 249.13 235.02 249.25 234.78C250.09 235.02 250.94 235.26 251.78 235.5C252.77 239.38 252.1 244.2 252.1 248.25C252.1 249.86 251.67 251.87 252.5 253.25C255.75 253.17 259 253.08 262.25 253C264.17 246.42 266.08 239.83 268 233.25C266.99 233.17 265.98 233.08 264.97 233C266.55 232.12 269.2 232.25 271.11 231.73C271.73 231.56 272.11 231.01 272.76 230.83C274.32 230.41 275.88 230.27 277.42 229.66C287.66 225.66 296.63 218.93 303.64 210.4C307.1 206.18 309.03 200.46 310.7 195.48C311.37 193.5 310.65 191.28 311.69 188.46C312.56 186.11 309.26 183.85 312 182.25C309.62 180.06 310.01 175.76 308.56 172.88C306.36 168.52 303.78 164.36 300.65 160.6C295.29 154.16 285.79 148.31 278.23 145.39C275.88 144.48 273.5 143.98 271.25 142.88C270.97 143.92 270.69 144.96 270.42 146C269.8 144.93 270.62 143.22 270.55 141.75C262.47 138.44 257.71 137.28 248.75 137.43C247.18 137.46 245.31 137.16 243.77 137.52C239.78 138.46 236.14 140.12 232.28 141.55ZM359.24 165.25C358.4 162.73 356.49 161.48 353.75 161.82C352.84 161.94 352.34 162.47 351.51 162.72C350.46 163.03 349.33 162.68 348.27 162.96C347.66 163.12 347.24 163.63 346.62 163.78C345.69 164 344.7 163.7 343.76 163.91C343.12 164.06 342.68 164.57 342.06 164.75C341.14 165 340.18 164.71 339.25 164.89C338.47 165.04 337.92 165.64 337.16 165.79C336.21 165.99 335.21 165.69 334.27 165.94C331.96 166.53 329.03 168 329.77 170.93C330.46 173.65 334.46 173.68 336.67 172.95C337.13 172.8 337.46 172.39 337.93 172.25C339 171.95 340.14 172.31 341.21 172C341.81 171.83 342.22 171.34 342.84 171.21C343.79 171.01 344.79 171.31 345.73 171.08C346.36 170.92 346.78 170.39 347.39 170.23C348.32 170 349.31 170.3 350.24 170.1C350.9 169.96 351.33 169.45 351.95 169.27C352.87 169 353.83 169.32 354.74 169.11C356.86 168.64 358.34 167.11 359.24 165.25ZM143.33 170.04C141.08 170.94 141.37 174.92 143.39 175.87C145.52 176.88 147.87 176.63 150.05 177.27C150.67 177.45 151.1 177.96 151.76 178.1C152.69 178.3 153.68 178 154.61 178.23C155.22 178.39 155.64 178.91 156.27 179.07C157.21 179.3 158.2 179.01 159.15 179.21C159.92 179.37 160.46 179.97 161.25 180.12C162.18 180.3 163.15 180 164.07 180.26C164.68 180.44 165.12 180.94 165.76 181.1C167.53 181.53 170.41 180.71 171.02 178.72C171.72 176.4 169.31 174.33 167.24 173.86C164.96 173.35 162.65 173.25 160.34 172.8C159.57 172.64 159.02 172.05 158.25 171.89C157.32 171.71 156.33 172 155.41 171.76C154.79 171.59 154.37 171.06 153.73 170.91C152.8 170.68 151.81 170.99 150.86 170.78C150.25 170.65 149.83 170.15 149.22 169.99C147.79 169.59 144.73 169.49 143.33 170.04ZM329.19 191.75C328.7 194.08 329.35 196.06 331.84 196.95C334.15 197.78 336.76 197.68 339.14 198.21C339.91 198.38 340.45 198.98 341.25 199.12C342.17 199.29 343.14 199 344.06 199.26C344.68 199.44 345.11 199.94 345.76 200.09C346.7 200.3 347.68 200 348.62 200.23C349.4 200.42 349.92 201.01 350.75 201.14C352.82 201.48 357.44 201.95 358.09 199.24C358.94 195.7 355.3 194.71 352.72 193.99C351.76 193.72 350.78 193.97 349.81 193.81C349.03 193.67 348.5 193.08 347.74 192.9C345.28 192.35 342.8 192.28 340.33 191.8C339.56 191.65 339.02 191.05 338.24 190.89C337.31 190.7 336.33 190.99 335.4 190.77C332.14 189.98 332.12 189.2 329.19 191.75ZM171.93 200.75C171.24 199.72 170.54 198.22 169.24 197.89C166.93 197.29 165.28 198.57 163.23 198.83C160.84 199.13 158.62 199.44 156.25 199.88C155.46 200.02 154.91 200.62 154.15 200.79C153.2 201 152.21 200.69 151.27 200.91C150.63 201.06 150.21 201.59 149.59 201.76C148.67 202 147.68 201.68 146.76 201.89C144.43 202.42 142.72 204.11 141.92 206.25C142.65 207.29 143.41 208.82 144.76 209.12C147.09 209.65 148.71 208.47 150.78 208.17C153.16 207.84 155.38 207.56 157.75 207.12C158.54 206.98 159.09 206.38 159.85 206.21C160.8 206 161.79 206.31 162.73 206.08C163.36 205.93 163.78 205.4 164.4 205.24C165.33 205 166.31 205.32 167.24 205.1C169.58 204.54 171.14 202.95 171.93 200.75ZM344.98 232.75C345.23 231.39 345.54 229.7 344.87 228.39C344.08 226.84 341.04 225.48 339.6 224.63C336.17 222.59 332.65 220.17 329.43 217.79C327.67 216.49 325.49 214.56 323.24 214.41C322.18 214.34 321.12 214.88 320.15 215.25C319.24 220.25 321.74 221.02 325.44 223.32C331.14 226.87 336.29 231.08 342.25 234.06C343.16 233.62 344.07 233.19 344.98 232.75ZM181.21 224.75C180.28 223.17 178.9 221.32 176.76 221.87C174.73 222.38 172.26 224.52 170.6 225.8C166.59 228.87 156.23 233.66 154.82 238.25C155.29 240.96 158 242.04 160.62 240.9C162.39 240.12 163.94 238.38 165.64 237.39C168.74 235.59 171.5 233.21 174.58 231.35C176.13 230.41 178.52 229.36 179.66 227.93C180.41 226.98 180.88 225.88 181.21 224.75Z" fill="#8a929c" fill-rule="evenodd" stroke="#8a929c" stroke-width="0.25" stroke-linejoin="round"/>
<path d="M75.5 0.08C81.19 0.08 86.88 0.08 92.58 0.08C94.19 1.07 100.42 1.58 102.78 2.07C108.68 3.27 114.62 5.64 120.05 8.25C138.19 16.95 153.34 32.67 161.16 51.14C162.02 53.17 163.19 55.19 163.84 57.3C165.58 62.93 166.83 68.66 167.75 74.5C168.33 74.68 168.92 74.85 169.5 75.03C168.45 75.65 167.48 76.12 166.75 75C164.9 76.33 162.37 77.09 160.27 77.9C156.52 79.36 152.86 81.19 149.32 82.99C147.1 84.11 144.52 86.18 142.05 86.25C140.33 82.88 138.81 74.59 135.44 72.88C133.35 70.28 132 67.07 129.78 64.45C123.78 57.36 117.14 51.78 109.06 47.23C103.76 44.25 97.28 42.52 91.25 41.96C85.76 41.46 80.6 41.8 75.27 43.09C71.79 43.94 68.46 45.82 65.41 47.66C50.88 56.44 44.86 76.07 47.12 92.24C48.31 100.76 51.47 109.03 55.78 116.44C59.54 122.91 64.22 127.98 69.58 133.19C71.85 135.39 75.21 138.26 78.25 139.09C82.07 136.18 84.77 131.82 88.22 128.46C94.78 122.05 101.58 116.08 108.47 110.05C109.14 109.95 109.82 109.85 110.5 109.75C104.96 114.37 99.75 121.43 95.56 127.3C94.79 128.38 93.71 129.21 92.98 130.31C85.47 141.58 78.52 153.09 72.97 165.3C70.7 170.27 68.6 175.61 66.92 180.77C66.74 181.33 66.89 181.93 66.69 182.47C66.52 182.96 66.06 183.25 65.9 183.77C65.71 184.35 65.87 184.97 65.72 185.55C65.26 187.3 64.25 188.99 63.82 190.75C62.88 194.63 62.08 198.45 60.91 202.26C60.32 204.19 60.93 205 60.01 207.29C59.44 208.72 60.13 210.21 59.78 211.62C59.57 212.45 58.46 213.11 58.96 214.13C59.09 214.38 59.77 214.26 60 214.25C59.06 216.08 57.19 221.91 58.5 223.75C56.87 225.45 58.29 227.99 57.82 230.15C57.69 230.74 57.25 231.18 57.11 231.77C56.11 236.02 56.52 244.84 57.05 249.27C57.19 250.47 57.75 251.57 57.88 252.77C58.05 254.22 57.52 255.82 57.81 257.23C57.89 257.6 58.36 258 58.38 258.33C58.42 259.16 57.69 259.79 57.77 260.78C57.92 262.62 58.85 263.93 58.8 265.75C58.75 267.34 58.5 269.19 58.92 270.74C59.09 271.36 59.63 271.77 59.77 272.37C60.08 273.62 59.51 274.95 59.96 276.23C60.13 276.7 60.6 276.98 60.74 277.43C61.12 278.63 60.34 279.07 61.5 279.75C60.5 281.29 61.65 283.97 63 285.25C62.73 285.42 62.18 285.51 62.05 285.85C61.87 286.38 62.67 287.24 62.77 287.8C63.24 290.73 63.73 294.1 66 296.25C65.48 296.76 66.25 296.5 65.73 296.8C65.52 296.92 65.15 296.45 65 296.88C64.86 297.28 66.49 300.95 66.7 301.55C67.69 304.38 68.79 307.27 69.71 310.13C72.38 318.33 76.6 325.88 80.62 333.64C83.75 339.67 87.26 346.26 91.68 351.58C94.38 354.83 96.79 358.5 99.33 361.92C100.23 363.14 101.43 365.04 103 364.75C103.01 365.08 102.73 365.4 102.79 365.73C103.06 367.27 107.22 371.11 108.43 372.33C113.59 377.54 118.65 382.76 124.28 387.47C126.15 389.03 129.48 393.22 132 392.75C132.05 393.06 131.79 393.39 131.89 393.69C132.15 394.47 137.6 398.03 138.57 398.67C146.08 403.67 154.01 409.49 162.27 413.08C165.01 414.27 167.63 415.67 170.32 417C171.22 417.44 172.23 417.47 172.67 418.59C173.49 420.74 172.76 429.44 172.76 432.25C172.76 444.25 172.88 456.25 172.88 468.25C172.88 471.58 172.94 474.92 172.88 478.25C172.85 479.58 172.38 481.4 172.97 482.67C173.95 484.76 175.83 487.54 178.26 488.16C179.47 488.47 180.12 488.34 181.25 489.02C182.37 488.52 183.61 488.51 184.69 488.02C186.94 487.01 189.41 482.96 188.5 480.75C188.54 480.71 188.54 480.23 188.75 480.22C188.98 480.2 189.05 480.93 189.2 480.89C189.22 480.88 189.86 479.88 190 479.75C189.66 482.68 191.14 486.83 194.3 488.06C195.39 488.48 196.19 488.37 197.25 489.02C199.58 488.07 200.79 488.68 201.5 486.25C203.98 486.73 205.28 482.25 205.25 480.27C206.56 482.68 207.41 486.4 210.37 487.91C211.41 488.44 212.66 488.5 213.75 489.01C214.97 488.29 215.91 488.45 217.2 488.01C219.06 487.35 221.54 484.56 222.01 482.68C222.19 481.97 221.7 481.82 221.72 481.25C221.73 480.92 222.13 480.6 222.19 480.23C222.77 476.67 222.12 472.38 222.12 468.75C222.12 460.92 222.12 453.08 222.12 445.25C222.12 441.08 221.8 436.73 222.25 432.59C225.27 431.6 227.74 434.48 229.75 432.5C232.29 433.16 237.58 434.81 240.17 434.26C240.52 434.19 240.97 433.72 241.25 433.72C243.17 433.74 243.44 435.26 245.25 433.5C246.91 434.69 256.59 434.69 258.25 433.5C259.53 434.75 262.19 434.67 263.75 433C265.08 435.3 266.98 433.77 268.93 433.24C269.71 433.04 270.48 433.35 271.23 433.19C271.61 433.12 272 432.64 272.33 432.62C272.9 432.6 273.16 433.05 273.67 433.23C274.78 433.61 276.59 433.15 277.75 433.2C277.76 436.21 277.76 439.23 277.77 442.25C277.96 442.16 278.85 441.77 278.91 441.88C279.38 442.77 279 444.75 279 445.75C279 449.25 279 452.75 279 456.25C279 461.92 279 467.58 279 473.25C279 474.06 279.1 478.75 278.89 479.14C278.7 479.51 278.13 479.51 277.79 479.75C278.83 482.65 279.94 486.74 283.31 488.04C284.59 488.53 285.53 488.22 286.75 489C290.17 487.84 294.44 485.99 294.25 481.5C296.04 482.58 296.08 484.4 297.21 486.03C298.57 487.99 301.24 488.36 303.25 489C304.26 488.37 305.1 488.4 306.17 487.97C308.78 486.93 309.47 484.15 310.75 482.06C312.12 482.79 312.32 484.2 313.34 485.41C315.06 487.44 316.89 488.07 319.25 488.97C321.64 487.59 323.63 488.17 325.78 485.54C329.77 480.65 328.27 470.29 328.27 464.25C328.27 457.08 328.27 449.92 328.27 442.75C328.27 439.56 328.79 435.89 328.28 432.75C328.15 431.96 327.69 431.49 327.52 430.73C326.93 428.18 327.24 422.07 327.75 419.5C327.92 422.83 328.08 426.17 328.25 429.5C328.3 426.08 327.7 422.07 328.75 418.84C332.46 416.41 336.85 415.13 340.82 413.12C348.39 409.29 355.56 404.63 362.71 400.03C366.24 397.77 369.26 394.81 372.7 392.44C379.15 387.98 384.85 382.19 390.35 376.6C404.16 362.56 415.41 347.08 424.59 329.86C429.82 320.06 434.63 309.36 437.23 298.83C437.38 298.21 437.87 297.85 438.11 297.25C438.74 295.63 438.84 293.13 439.27 291.44C439.4 290.92 440.15 290.43 439.95 289.85C439.82 289.51 439.27 289.42 439 289.25C441.16 287.54 440.59 285.64 441.23 283.35C441.49 282.42 442.27 281.85 442.19 280.77C442.16 280.37 441.72 280.1 441.72 279.75C441.72 278.57 443.08 277.39 443.1 276.26C443.11 275.79 442.63 275.56 442.62 275.17C442.61 274.05 443.54 272.24 444.14 271.25C444.04 269.32 443.75 266.95 444.19 264.84C444.38 263.92 445.03 263.27 445.17 262.25C445.53 259.74 444.93 257.23 445.09 254.74C445.22 252.56 446.05 250.51 446.15 248.25C446.32 244.13 446.48 239.85 446.05 235.75C445.9 234.35 445.19 233.12 445.08 231.75C444.89 229.32 445.21 226.69 445.29 224.25C444.86 223.58 444.43 222.92 444 222.25C444.39 221.92 444.78 221.58 445.17 221.25C444.92 220.56 444.37 219.83 444.22 219.14C443.86 217.57 444.5 215.86 444.11 214.25C443.79 212.95 442.69 211.62 442.72 210.25C442.73 209.8 443.2 209.3 443.24 208.75C443.32 207.43 442.43 206.77 442.2 205.65C442.01 204.7 442.39 203.71 442.15 202.75C441.98 202.06 441.45 201.58 441.27 200.89C441.09 200.21 441.33 199.45 441.15 198.75C440.64 196.79 439.78 194.87 439.27 192.89C438.85 191.25 438.71 188.31 438.1 186.75C436.48 182.65 434.74 178.36 433.29 174.25C432.79 172.82 432.62 171.21 432.06 169.76C431.35 167.89 430.18 166.19 429.34 164.41C427.78 161.14 426.49 157.68 424.86 154.39C421.9 148.41 418.09 142.76 414.7 137.05C411.19 131.13 406.15 126.09 402.5 120.25C403.37 120.72 403.69 121.37 404.54 121.06C410.61 127.21 416.68 133.36 422.75 139.5C431.56 135.08 439.29 126.26 444.17 117.89C448.97 109.66 452.03 101.2 453.39 91.72C454.27 85.61 453.75 79.42 452.27 73.48C450.97 68.25 449.07 62.79 445.83 58.4C443.2 54.83 440.23 51.74 436.64 49.13C428.41 43.16 417.57 40.87 407.64 42.8C406.25 43.07 404.8 42.92 403.41 43.23C388.31 46.63 374.98 57.68 366.87 70.64C364.14 75 360.86 79.87 359.88 85C358.88 85.32 358.75 85.68 358.25 86.68C350.04 81.91 341.29 78.73 332.88 74.92C332.92 73 333.53 71.52 333.83 69.71C335.2 61.61 337.83 53.81 341.77 46.6C349.12 33.13 359.27 21.48 372.38 13.14C399.32 -3.99 437.65 -4.04 463.18 16.09C498.25 43.75 502.63 93.67 475.79 128.54C469.48 136.73 461.41 144.47 452.47 149.7C447.39 152.67 441.96 154.81 436.75 157.5C437.51 160.93 440.89 164.52 442.83 167.41C446.23 172.46 448.92 178.11 451.84 183.37C456.63 192.01 459.79 201.44 463.23 210.59C465.71 217.18 467.32 223.36 469.2 230.13C469.71 231.96 470.55 233.84 470.91 235.74C471.43 238.48 471.54 241.38 472.23 244.09C472.9 246.71 473.76 249.55 474.03 252.27C474.55 257.61 475.12 262.91 475.84 268.23C476.87 275.86 476.15 284.07 476.05 291.75C475.99 295.73 476.31 299.78 475.83 303.75C474.36 316.02 472.75 328.27 469.9 340.25C469.49 341.98 468.72 343.67 468.2 345.38C467.26 348.46 466.75 351.61 465.84 354.7C464.21 360.26 461.83 365.71 459.8 371.14C456.86 379.05 452.35 387.52 448.18 394.89C446.42 397.99 445.04 401.29 443.03 404.25C440.69 407.71 436.28 413.02 434.99 416.75C438.63 417.52 442.98 416.96 446.75 416.96C457.18 416.96 464.32 418.58 471.13 409.38C472.03 408.16 473.41 406.66 473.86 405.16C474.72 402.31 473.99 398.23 473.99 395.25C473.99 392.58 473.99 389.92 473.99 387.25C473.99 377.38 471.8 364.61 481.58 358.76C483.57 357.58 485.4 356.97 487.75 356.89C489.57 356.83 491.49 356.66 493.29 357.07C498.91 358.34 503.56 364.36 504.78 369.75C505.64 373.55 504.88 378.35 504.88 382.25C504.88 389.08 504.88 395.92 504.88 402.75C504.88 407.41 505.55 412.65 504.81 417.25C503.3 426.59 499.42 435.92 490.5 440.72C486.58 442.82 482.5 444.74 478.21 445.9C470.2 448.06 461.53 447.79 453.25 447.79C444.58 447.79 435.92 447.79 427.25 447.79C422.75 447.79 418.25 447.79 413.75 447.79C412.11 447.79 410.09 447.47 408.5 447.86C406.75 448.29 404.92 450.71 403.67 451.93C400.03 455.47 396.08 458.73 392.22 462.03C379.07 473.26 363.49 482.29 348.17 489.85C333.18 497.24 317.16 502.68 300.84 506.18C298.68 506.64 296.5 507.57 294.3 507.93C288.81 508.82 283.32 509.43 277.81 510.19C276.43 510.39 275.13 510.89 273.73 511.02C270.69 511.32 267.42 510.64 264.56 511.92C255.01 511.92 245.47 511.92 235.93 511.92C232.91 510.56 229.43 511.35 226.23 510.98C219.56 510.2 212.77 509.18 206.21 507.92C204 507.49 201.85 506.68 199.68 506.17C183.29 502.35 167.63 497 152.33 489.93C147.42 487.67 142.75 484.92 138.11 482.17C106.34 463.37 83.45 441.89 62.14 411.61C49.77 394.02 41.05 373.15 34.17 353.14C32.19 347.37 31.36 341.28 29.78 335.4C23.89 313.38 23.36 288.6 24.94 265.75C25.06 264.04 25.7 262.44 25.85 260.74C27.58 239.96 33.34 221.63 40.06 202.29C41.89 197 44.85 191.5 47.14 186.34C48.12 184.13 49.57 182.12 50.72 180.01C53.45 175.02 56.02 170.13 59.16 165.38C60.68 163.07 63.99 159.48 63.54 156.75C61.92 155.29 58.83 154.74 56.8 153.91C53.74 152.65 50.19 150.69 47.41 148.84C41.09 144.64 35.31 139.71 29.98 134.26C23.44 127.57 18.52 119.25 14.82 110.87C0.78 79.06 6.74 44.22 32.2 19.94C40.35 12.16 51.1 6.21 61.76 3.13C64.44 2.35 67.42 1.53 70.18 1.09C72.06 0.79 73.9 1.2 75.5 0.08ZM232.28 141.55C231.6 142.37 230.93 143.18 230.25 144C231.69 145.7 232.58 147.97 232.5 150.25C235.58 152.7 235.99 157.39 238.75 160.12C239.02 160.38 239.39 160.24 239.69 160.5C240.75 161.45 241.35 163.19 242.52 164.05C242.99 164.39 243.55 164.41 244.04 164.74C244.65 165.16 244.93 166.16 245.55 166.55C247.12 167.53 248.7 167.72 250 169.25C251.17 169.25 252.33 169.25 253.5 169.25C254.93 167.27 257.48 166.07 259.45 164.55C260.06 164.08 260.47 163.23 261.11 162.79C261.55 162.49 262.04 162.59 262.41 162.16C263.83 160.48 264.28 157.98 266.5 157.25C266.51 155.22 267.54 154.4 268.2 152.66C269.01 150.52 268.8 147.56 270.42 146C270.69 144.96 270.97 143.92 271.25 142.88C273.5 143.98 275.88 144.48 278.23 145.39C285.79 148.31 295.29 154.16 300.65 160.6C303.78 164.36 306.36 168.52 308.56 172.88C310.01 175.76 309.62 180.06 312 182.25C309.26 183.85 312.56 186.11 311.69 188.46C310.65 191.28 311.37 193.5 310.7 195.48C309.03 200.46 307.1 206.18 303.64 210.4C296.63 218.93 287.66 225.66 277.42 229.66C275.88 230.27 274.32 230.41 272.76 230.83C272.11 231.01 271.73 231.56 271.11 231.73C269.2 232.25 266.55 232.12 264.97 233C264.05 234.1 260.9 234.65 259.25 234.56C258.75 234.53 258.35 234.1 257.84 234.16C257.46 234.2 257.13 234.73 256.73 234.85C255.04 235.39 253.39 234.62 251.78 235.5C250.94 235.26 250.09 235.02 249.25 234.78C249.13 235.02 249.02 235.26 248.9 235.5C245.63 234.48 238.03 235.34 235.94 233C234.24 232.05 231.45 232.28 229.45 231.72C227.38 231.13 225.26 230.37 223.2 229.65C213.48 226.26 200.75 217.55 195.44 208.22C192.58 203.2 190.76 198.07 189.24 192.59C188.91 191.4 189.53 190.08 189.26 188.89C189.19 188.53 188.73 188.04 188.72 187.75C188.72 187.38 189.21 187.18 189.21 186.75C189.2 186.32 188.72 186.13 188.72 185.75C188.72 185.43 189.15 185.08 189.21 184.73C189.35 183.93 189.03 183.09 189.16 182.28C189.28 181.53 189.86 180.99 190.05 180.24C190.55 178.27 190.66 176.42 191.3 174.52C191.86 172.86 193.06 171.2 193.88 169.62C197.93 161.73 204.41 155.89 211.72 151.03C215.19 148.72 225.61 143.39 229.39 143.25C230.21 142.01 230.89 140.96 232.28 141.55ZM359.24 165.25C358.34 167.11 356.86 168.64 354.74 169.11C353.83 169.32 352.87 169 351.95 169.27C351.33 169.45 350.9 169.96 350.24 170.1C349.31 170.3 348.32 170 347.39 170.23C346.78 170.39 346.36 170.92 345.73 171.08C344.79 171.31 343.79 171.01 342.84 171.21C342.22 171.34 341.81 171.83 341.21 172C340.14 172.31 339 171.95 337.93 172.25C337.46 172.39 337.13 172.8 336.67 172.95C334.46 173.68 330.46 173.65 329.77 170.93C329.03 168 331.96 166.53 334.27 165.94C335.21 165.69 336.21 165.99 337.16 165.79C337.92 165.64 338.47 165.04 339.25 164.89C340.18 164.71 341.14 165 342.06 164.75C342.68 164.57 343.12 164.06 343.76 163.91C344.7 163.7 345.69 164 346.62 163.78C347.24 163.63 347.66 163.12 348.27 162.96C349.33 162.68 350.46 163.03 351.51 162.72C352.34 162.47 352.84 161.94 353.75 161.82C356.49 161.48 358.4 162.73 359.24 165.25ZM143.33 170.04C144.73 169.49 147.79 169.59 149.22 169.99C149.83 170.15 150.25 170.65 150.86 170.78C151.81 170.99 152.8 170.68 153.73 170.91C154.37 171.06 154.79 171.59 155.41 171.76C156.33 172 157.32 171.71 158.25 171.89C159.02 172.05 159.57 172.64 160.34 172.8C162.65 173.25 164.96 173.35 167.24 173.86C169.31 174.33 171.72 176.4 171.02 178.72C170.41 180.71 167.53 181.53 165.76 181.1C165.12 180.94 164.68 180.44 164.07 180.26C163.15 180 162.18 180.3 161.25 180.12C160.46 179.97 159.92 179.37 159.15 179.21C158.2 179.01 157.21 179.3 156.27 179.07C155.64 178.91 155.22 178.39 154.61 178.23C153.68 178 152.69 178.3 151.76 178.1C151.1 177.96 150.67 177.45 150.05 177.27C147.87 176.63 145.52 176.88 143.39 175.87C141.37 174.92 141.08 170.94 143.33 170.04ZM329.19 191.75C332.12 189.2 332.14 189.98 335.4 190.77C336.33 190.99 337.31 190.7 338.24 190.89C339.02 191.05 339.56 191.65 340.33 191.8C342.8 192.28 345.28 192.35 347.74 192.9C348.5 193.08 349.03 193.67 349.81 193.81C350.78 193.97 351.76 193.72 352.72 193.99C355.3 194.71 358.94 195.7 358.09 199.24C357.44 201.95 352.82 201.48 350.75 201.14C349.92 201.01 349.4 200.42 348.62 200.23C347.68 200 346.7 200.3 345.76 200.09C345.11 199.94 344.68 199.44 344.06 199.26C343.14 199 342.17 199.29 341.25 199.12C340.45 198.98 339.91 198.38 339.14 198.21C336.76 197.68 334.15 197.78 331.84 196.95C329.35 196.06 328.7 194.08 329.19 191.75ZM171.93 200.75C171.14 202.95 169.58 204.54 167.24 205.1C166.31 205.32 165.33 205 164.4 205.24C163.78 205.4 163.36 205.93 162.73 206.08C161.79 206.31 160.8 206 159.85 206.21C159.09 206.38 158.54 206.98 157.75 207.12C155.38 207.56 153.16 207.84 150.78 208.17C148.71 208.47 147.09 209.65 144.76 209.12C143.41 208.82 142.65 207.29 141.92 206.25C142.72 204.11 144.43 202.42 146.76 201.89C147.68 201.68 148.67 202 149.59 201.76C150.21 201.59 150.63 201.06 151.27 200.91C152.21 200.69 153.2 201 154.15 200.79C154.91 200.62 155.46 200.02 156.25 199.88C158.62 199.44 160.84 199.13 163.23 198.83C165.28 198.57 166.93 197.29 169.24 197.89C170.54 198.22 171.24 199.72 171.93 200.75ZM344.98 232.75C344.07 233.19 343.16 233.62 342.25 234.06C336.29 231.08 331.14 226.87 325.44 223.32C321.74 221.02 319.24 220.25 320.15 215.25C321.12 214.88 322.18 214.34 323.24 214.41C325.49 214.56 327.67 216.49 329.43 217.79C332.65 220.17 336.17 222.59 339.6 224.63C341.04 225.48 344.08 226.84 344.87 228.39C345.54 229.7 345.23 231.39 344.98 232.75ZM181.21 224.75C180.88 225.88 180.41 226.98 179.66 227.93C178.52 229.36 176.13 230.41 174.58 231.35C171.5 233.21 168.74 235.59 165.64 237.39C163.94 238.38 162.39 240.12 160.62 240.9C158 242.04 155.29 240.96 154.82 238.25C156.23 233.66 166.59 228.87 170.6 225.8C172.26 224.52 174.73 222.38 176.76 221.87C178.9 221.32 180.28 223.17 181.21 224.75ZM248.9 235.5C249.83 236.72 249.5 238.6 249.5 240.25C249.5 244.37 250.05 248.99 249.25 253C248.67 253.08 248.08 253.16 247.5 253.24C247.92 252.99 248.33 252.75 248.75 252.5C248.8 246.83 248.85 241.17 248.9 235.5Z" fill="#747b85" fill-rule="evenodd" stroke="#747b85" stroke-width="0.25" stroke-linejoin="round"/>
<path d="M135.44 72.88C135.96 74.54 137.05 75.84 137.76 77.43C139.25 80.79 140.85 84.48 141.75 88C139.91 88.55 138.28 89.8 136.6 90.81C131.48 93.89 126.48 97.09 121.43 100.32C119.33 101.67 117.55 103.67 115.46 104.94C113.14 106.36 110.27 107.84 108.47 110.05C101.58 116.08 94.78 122.05 88.22 128.46C84.77 131.82 82.07 136.18 78.25 139.09C75.21 138.26 71.85 135.39 69.58 133.19C64.22 127.98 59.54 122.91 55.78 116.44C51.47 109.03 48.31 100.76 47.12 92.24C44.86 76.07 50.88 56.44 65.41 47.66C68.46 45.82 71.79 43.94 75.27 43.09C80.6 41.8 85.76 41.46 91.25 41.96C97.28 42.52 103.76 44.25 109.06 47.23C117.14 51.78 123.78 57.36 129.78 64.45C132 67.07 133.35 70.28 135.44 72.88ZM404.54 121.06C402.21 118.01 398.72 115.86 395.8 113.42C389.49 108.13 383.02 102.65 376.06 98.23C370.44 94.66 364.5 91.56 359.05 87.75C359.33 86.83 359.61 85.92 359.88 85C360.86 79.87 364.14 75 366.87 70.64C374.98 57.68 388.31 46.63 403.41 43.23C404.8 42.92 406.25 43.07 407.64 42.8C417.57 40.87 428.41 43.16 436.64 49.13C440.23 51.74 443.2 54.83 445.83 58.4C449.07 62.79 450.97 68.25 452.27 73.48C453.75 79.42 454.27 85.61 453.39 91.72C452.03 101.2 448.97 109.66 444.17 117.89C439.29 126.26 431.56 135.08 422.75 139.5C416.68 133.36 410.61 127.21 404.54 121.06Z" fill="#f2b2c4" fill-rule="evenodd" stroke="#f2b2c4" stroke-width="0.25" stroke-linejoin="round"/>
<path d="M349 130.25C348.33 131.69 347.79 133.29 346.84 134.59C341.98 141.28 327.76 148.4 320.16 150.88C319.31 151.16 318.38 150.99 317.53 151.28C314.3 152.38 304.03 155.01 302.13 150.62C300.47 146.77 306.81 141.62 309.49 139.72C310.54 138.98 311.37 137.91 312.45 137.22C319.24 132.85 329.83 127.59 337.78 126.93C341.9 126.59 347.37 125.02 349 130.25ZM156.32 129.14C159.56 128.33 163.7 129.79 166.74 130.74C167.67 131.04 168.71 130.81 169.63 131.14C177.12 133.85 184.89 137.42 191.13 142.62C193.9 144.93 200.37 149.28 197.98 153.78C197.46 154.77 196.46 154.91 195.53 155.27C191.73 156.74 190.31 155.44 186.77 155.08C176.97 154.09 164.66 147.05 157 140.73C152.82 137.29 148.38 131.13 156.32 129.14ZM270.42 146C268.8 147.56 269.01 150.52 268.2 152.66C267.54 154.4 266.51 155.22 266.5 157.25C264.28 157.98 263.83 160.48 262.41 162.16C262.04 162.59 261.55 162.49 261.11 162.79C260.47 163.23 260.06 164.08 259.45 164.55C257.48 166.07 254.93 167.27 253.5 169.25C252.33 169.25 251.17 169.25 250 169.25C248.7 167.72 247.12 167.53 245.55 166.55C244.93 166.16 244.65 165.16 244.04 164.74C243.55 164.41 242.99 164.39 242.52 164.05C241.35 163.19 240.75 161.45 239.69 160.5C239.39 160.24 239.02 160.38 238.75 160.12C235.99 157.39 235.58 152.7 232.5 150.25C232.58 147.97 231.69 145.7 230.25 144C230.93 143.18 231.6 142.37 232.28 141.55C236.14 140.12 239.78 138.46 243.77 137.52C245.31 137.16 247.18 137.46 248.75 137.43C257.71 137.28 262.47 138.44 270.55 141.75C270.62 143.22 269.8 144.93 270.42 146Z" fill="#1f2122" fill-rule="evenodd" stroke="#1f2122" stroke-width="0.25" stroke-linejoin="round"/>
<path d="M235.94 233C238.03 235.34 245.63 234.48 248.9 235.5C248.85 241.17 248.8 246.83 248.75 252.5C248.33 252.75 247.92 252.99 247.5 253.24C244.5 253.24 241.5 253.25 238.5 253.25C236.33 246.58 234.17 239.92 232 233.25C233.45 233.34 234.53 233.48 235.94 233ZM264.97 233C265.98 233.08 266.99 233.17 268 233.25C266.08 239.83 264.17 246.42 262.25 253C259 253.08 255.75 253.17 252.5 253.25C251.67 251.87 252.1 249.86 252.1 248.25C252.1 244.2 252.77 239.38 251.78 235.5C253.39 234.62 255.04 235.39 256.73 234.85C257.13 234.73 257.46 234.2 257.84 234.16C258.35 234.1 258.75 234.53 259.25 234.56C260.9 234.65 264.05 234.1 264.97 233Z" fill="#ffffff" fill-rule="evenodd" stroke="#ffffff" stroke-width="0.25" stroke-linejoin="round"/>
</svg>